<svg width="564" height="494" viewBox="0 0 564 494" fill="none" xmlns="http://www.w3.org/2000/svg">
<path d="M190.277 222C207.398 222 221.277 208.121 221.277 191C221.277 173.879 207.398 160 190.277 160C173.156 160 159.277 173.879 159.277 191C159.277 208.121 173.156 222 190.277 222Z" fill="#F2F2F2"/>
<path d="M94.6954 84.1377H308.277V95.823H121.961C111.006 95.823 100.159 97.9806 90.038 102.173C79.9172 106.365 70.7212 112.509 62.9751 120.256C55.2289 128.002 49.0844 137.198 44.8922 147.319C40.7 157.439 38.5424 168.287 38.5424 179.241V312H15.1719C14.1388 312 13.1481 311.59 12.4176 310.859C11.6872 310.129 11.2768 309.138 11.2768 308.105V167.556C11.2768 156.601 13.4345 145.754 17.6266 135.633C21.8188 125.512 27.9634 116.316 35.7095 108.57C43.4556 100.824 52.6516 94.6796 62.7724 90.4875C72.8932 86.2953 83.7407 84.1377 94.6954 84.1377V84.1377Z" fill="#F2F2F2"/>
<path d="M135.777 489V311.5H187.777V489C187.775 490.193 187.301 491.337 186.457 492.18C185.614 493.024 184.47 493.499 183.277 493.5H140.277C139.084 493.499 137.94 493.024 137.096 492.18C136.253 491.337 135.778 490.193 135.777 489Z" fill="#3F3D56"/>
<path d="M0.276772 308V163.666C0.302715 140.688 9.44183 118.66 25.6891 102.412C41.9364 86.1652 63.9649 77.026 86.9421 77H307.277V313H5.27677C3.95115 312.998 2.68028 312.471 1.74293 311.534C0.805574 310.597 0.278288 309.326 0.276772 308V308ZM305.277 79H86.9421C64.4952 79.0254 42.975 87.9537 27.1027 103.826C11.2304 119.698 2.30215 141.219 2.27677 163.666V308C2.27764 308.795 2.59399 309.558 3.15641 310.12C3.71883 310.683 4.48139 310.999 5.27677 311H305.277V79Z" fill="#3F3D56"/>
<path d="M190.277 207C185.505 206.995 180.929 205.096 177.555 201.722C174.18 198.347 172.282 193.772 172.277 189V60C172.276 59.2046 171.96 58.4421 171.397 57.8796C170.835 57.3172 170.072 57.0009 169.277 57H99.2768C97.9512 56.9985 96.6803 56.4712 95.743 55.5338C94.8056 54.5965 94.2783 53.3256 94.2768 52V5C94.2783 3.67439 94.8056 2.40351 95.743 1.46616C96.6803 0.528807 97.9512 0.00153504 99.2768 0H203.277C204.602 0.00151655 205.873 0.528787 206.811 1.46614C207.748 2.40349 208.275 3.67438 208.277 5V189C208.271 193.772 206.373 198.347 202.999 201.722C199.624 205.096 195.049 206.995 190.277 207Z" fill="#00F3FF"/>
<path d="M315.277 75C330.362 74.9684 344.843 80.9308 355.532 91.5757C366.222 102.22 372.245 116.676 372.277 131.761V296.071H484.277C488.776 296.062 493.095 297.84 496.283 301.015C499.471 304.19 501.267 308.501 501.277 313H258.277V131.761C258.308 116.676 264.332 102.22 275.021 91.5757C285.711 80.9308 300.191 74.9684 315.277 75Z" fill="#3F3D56"/>
<path d="M301.599 168.568L313.402 217.324L544.283 161.432L532.48 112.676C532.337 112.08 532.046 111.529 531.634 111.076C531.222 110.622 530.702 110.28 530.122 110.081C529.694 109.93 529.242 109.862 528.788 109.88L395.329 40.7782C394.547 40.3788 393.648 40.2722 392.794 40.4774C391.94 40.6826 391.188 41.1863 390.673 41.8974L326.353 131.591L302.105 165.414C302.061 165.473 302.03 165.541 302.015 165.613C301.999 165.686 302 165.76 302.016 165.832C301.522 166.654 301.373 167.636 301.599 168.568V168.568Z" fill="white"/>
<path d="M302.016 165.832C302.027 165.896 302.051 165.956 302.086 166.01C302.121 166.065 302.166 166.111 302.219 166.148C302.282 166.191 302.352 166.221 302.427 166.235C302.501 166.25 302.578 166.25 302.652 166.234C302.773 166.201 302.879 166.128 302.951 166.026L303.035 165.911L304.297 164.145L327.226 132.181L391.527 42.508C391.894 41.9998 392.431 41.64 393.04 41.4939C393.65 41.3478 394.291 41.4251 394.849 41.7117L527.274 110.278L528.462 110.895C528.511 110.915 528.56 110.933 528.61 110.947C528.699 110.931 528.79 110.922 528.881 110.921C529.006 110.879 529.109 110.792 529.171 110.676C529.203 110.615 529.223 110.549 529.23 110.48C529.236 110.411 529.229 110.342 529.209 110.276C529.188 110.211 529.155 110.149 529.111 110.096C529.067 110.043 529.013 109.999 528.952 109.967L528.788 109.88L395.329 40.7782C394.547 40.3788 393.648 40.2722 392.794 40.4774C391.94 40.6826 391.188 41.1863 390.673 41.8974L326.353 131.591L302.105 165.414C302.061 165.473 302.03 165.541 302.015 165.613C301.999 165.686 302 165.76 302.016 165.832V165.832Z" fill="#3F3D56"/>
<path d="M371.357 170.804L376.496 171.374L414.639 175.599L439.925 178.399L441.418 178.565L472.97 153.92L474.179 152.976L481.631 147.156L508.145 126.449L508.304 124.995L517.735 39.8809C517.863 38.7089 517.522 37.5337 516.785 36.613C516.049 35.6924 514.977 35.1013 513.805 34.9694L387.95 21.0276C386.778 20.8996 385.603 21.2413 384.682 21.9777C383.762 22.7142 383.17 23.7854 383.038 24.9568L376.388 84.9944L372.699 118.28L369.399 148.059L367.869 161.888L367.422 165.894C367.295 167.066 367.638 168.241 368.375 169.162C369.113 170.082 370.185 170.672 371.357 170.804V170.804Z" fill="#E6E6E6"/>
<path d="M405.942 96.1978L460.459 102.236L479.792 104.377C480.646 104.471 481.51 104.397 482.334 104.157C483.159 103.918 483.929 103.518 484.599 102.982C485.27 102.445 485.828 101.782 486.242 101.029C486.656 100.277 486.917 99.4501 487.012 98.5965C487.107 97.7429 487.032 96.8791 486.793 96.0543C486.553 95.2295 486.154 94.4599 485.617 93.7895C485.081 93.119 484.417 92.5609 483.665 92.1469C482.912 91.7329 482.086 91.4712 481.232 91.3766L457.185 88.7134L407.386 83.1915C405.661 83.001 403.932 83.5031 402.578 84.5872C401.224 85.6714 400.356 87.249 400.164 88.9732C399.973 90.6973 400.474 92.4269 401.557 93.7817C402.641 95.1364 404.218 96.0055 405.942 96.1978Z" fill="white"/>
<path d="M402.838 120.314C402.979 120.339 403.119 120.364 403.263 120.378L466.548 127.389L477.114 128.562C478.839 128.752 480.568 128.25 481.923 127.166C483.277 126.081 484.145 124.503 484.336 122.778C484.527 121.054 484.024 119.324 482.94 117.97C481.855 116.615 480.277 115.747 478.552 115.557L463.274 113.866L413.144 108.312L404.708 107.377C403.02 107.188 401.326 107.664 399.983 108.702C398.64 109.74 397.753 111.26 397.511 112.94C397.268 114.62 397.688 116.329 398.682 117.705C399.676 119.081 401.167 120.017 402.838 120.314V120.314Z" fill="white"/>
<path d="M395.675 141.698C396.194 142.559 396.904 143.288 397.751 143.831C398.597 144.373 399.557 144.712 400.556 144.823L426.495 147.696L472.692 152.814L472.702 152.811L474.179 152.976L481.631 147.156C481.678 146.714 481.678 146.268 481.633 145.826C481.475 144.341 480.816 142.955 479.764 141.896C478.712 140.837 477.329 140.168 475.846 140.002L469.428 139.289L443.971 136.472L425.655 134.44L401.994 131.818C400.782 131.684 399.556 131.891 398.455 132.417C397.354 132.943 396.423 133.767 395.765 134.795C395.108 135.822 394.751 137.013 394.735 138.233C394.72 139.453 395.045 140.653 395.676 141.698L395.675 141.698Z" fill="white"/>
<path d="M432.108 66.7196L445.673 68.2219L451.664 68.8872L460.714 69.8888C462.439 70.0796 464.168 69.5775 465.523 68.4929C466.877 67.4083 467.745 65.8302 467.936 64.1056C468.127 62.381 467.625 60.6513 466.54 59.297C465.455 57.9426 463.877 57.0746 462.153 56.8838L433.553 53.7184C431.829 53.5268 430.1 54.0279 428.745 55.1115C427.391 56.1951 426.522 57.7724 426.33 59.4964C426.139 61.2205 426.64 62.9501 427.723 64.3047C428.807 65.6593 430.384 66.5279 432.108 66.7195V66.7196Z" fill="white"/>
<path d="M321.193 102.932L337.731 171.246L365.332 176.494L390.864 181.355L418.258 186.567L427.011 188.233C427.523 188.33 428.05 188.316 428.557 188.194C429.064 188.071 429.539 187.842 429.95 187.521L436.972 182.037L441.418 178.565L472.97 153.92L452.908 71.0463C452.71 70.2218 452.278 69.4721 451.664 68.8872C451.126 68.3697 450.465 67.9961 449.745 67.8009C449.024 67.6056 448.265 67.595 447.539 67.77L324.47 97.5627C323.324 97.8409 322.335 98.5626 321.721 99.5693C321.106 100.576 320.917 101.785 321.193 102.932V102.932Z" fill="#00F3FF"/>
<path d="M359.114 157.278C359.523 158.963 360.585 160.417 362.065 161.32C363.545 162.223 365.324 162.502 367.009 162.096L439.224 144.614C440.909 144.204 442.362 143.142 443.265 141.662C444.168 140.182 444.447 138.404 444.042 136.718C444.023 136.635 444 136.553 443.971 136.472C443.51 134.846 442.438 133.463 440.979 132.611C439.52 131.758 437.788 131.504 436.146 131.9L363.932 149.382C362.247 149.792 360.793 150.853 359.889 152.333C358.986 153.814 358.707 155.592 359.114 157.278Z" fill="white"/>
<path d="M365.332 176.494L390.864 181.355L444.948 168.262C446.634 167.854 448.089 166.793 448.993 165.312C449.896 163.831 450.175 162.052 449.766 160.366C449.358 158.68 448.297 157.225 446.816 156.322C445.336 155.418 443.557 155.14 441.871 155.548L369.656 173.03C368.147 173.392 366.818 174.283 365.909 175.541C365.69 175.842 365.497 176.161 365.332 176.494Z" fill="white"/>
<path d="M418.258 186.567L427.01 188.233C427.523 188.33 428.05 188.316 428.557 188.194C429.064 188.071 429.539 187.842 429.95 187.521L436.972 182.037L418.258 186.567Z" fill="white"/>
<path d="M373.664 120.647C374.074 122.332 375.135 123.786 376.616 124.689C378.096 125.592 379.874 125.871 381.56 125.465L409.531 118.694C411.215 118.283 412.668 117.222 413.572 115.742C414.475 114.261 414.754 112.484 414.349 110.798C414.131 109.892 413.72 109.044 413.144 108.312C412.37 107.322 411.328 106.576 410.141 106.162C408.955 105.749 407.674 105.685 406.453 105.98L378.483 112.751C376.797 113.159 375.342 114.22 374.439 115.701C373.535 117.182 373.257 118.961 373.664 120.647V120.647Z" fill="white"/>
<path d="M390.862 181.354L418.26 186.568L427.01 188.234C427.522 188.33 428.049 188.316 428.555 188.193C429.062 188.071 429.537 187.842 429.948 187.523L436.975 182.037L434.509 182.634L429.304 186.695C429.01 186.923 428.671 187.087 428.309 187.174C427.947 187.262 427.571 187.272 427.205 187.203L420.726 185.971L393.328 180.757L390.862 181.354ZM472.7 152.815L472.966 153.917L474.181 152.972L472.7 152.815ZM390.862 181.354L418.26 186.568L427.01 188.234C427.522 188.33 428.049 188.316 428.555 188.193C429.062 188.071 429.537 187.842 429.948 187.523L436.975 182.037L434.509 182.634L429.304 186.695C429.01 186.923 428.671 187.087 428.309 187.174C427.947 187.262 427.571 187.272 427.205 187.203L420.726 185.971L393.328 180.757L390.862 181.354ZM390.862 181.354L418.26 186.568L427.01 188.234C427.522 188.33 428.049 188.316 428.555 188.193C429.062 188.071 429.537 187.842 429.948 187.523L436.975 182.037L434.509 182.634L429.304 186.695C429.01 186.923 428.671 187.087 428.309 187.174C427.947 187.262 427.571 187.272 427.205 187.203L420.726 185.971L393.328 180.757L390.862 181.354ZM301.599 168.567L332.515 296.278C332.744 297.221 333.339 298.036 334.168 298.541C334.997 299.047 335.993 299.204 336.937 298.976L560.698 244.808C561.641 244.579 562.456 243.984 562.961 243.155C563.467 242.326 563.624 241.33 563.396 240.386L532.48 112.676C532.337 112.08 532.046 111.529 531.634 111.076C531.222 110.622 530.702 110.28 530.122 110.081C529.694 109.93 529.242 109.862 528.788 109.88C528.26 109.895 527.742 110.032 527.274 110.278C527.058 110.381 526.854 110.507 526.667 110.655L508.303 124.995L481.633 145.829L472.698 152.808L472.7 152.815L472.692 152.817L439.926 178.395L434.51 182.634L429.304 186.695C429.01 186.923 428.671 187.086 428.309 187.174C427.947 187.262 427.571 187.272 427.205 187.203L420.726 185.971L393.328 180.757L365.906 175.542L305.844 164.112C305.332 164.01 304.804 164.022 304.297 164.145C303.614 164.312 302.993 164.672 302.509 165.181C302.323 165.381 302.158 165.599 302.016 165.832C301.522 166.654 301.373 167.636 301.599 168.567V168.567ZM390.862 181.354L418.26 186.568L427.01 188.234C427.522 188.33 428.049 188.316 428.555 188.193C429.062 188.071 429.537 187.842 429.948 187.523L436.975 182.037L434.509 182.634L429.304 186.695C429.01 186.923 428.671 187.087 428.309 187.174C427.947 187.262 427.571 187.272 427.205 187.203L420.726 185.971L393.328 180.757L390.862 181.354ZM390.862 181.354L418.26 186.568L427.01 188.234C427.522 188.33 428.049 188.316 428.555 188.193C429.062 188.071 429.537 187.842 429.948 187.523L436.975 182.037L434.509 182.634L429.304 186.695C429.01 186.923 428.671 187.087 428.309 187.174C427.947 187.262 427.571 187.272 427.205 187.203L420.726 185.971L393.328 180.757L390.862 181.354ZM390.862 181.354L418.26 186.568L427.01 188.234C427.522 188.33 428.049 188.316 428.555 188.193C429.062 188.071 429.537 187.842 429.948 187.523L436.975 182.037L434.509 182.634L429.304 186.695C429.01 186.923 428.671 187.087 428.309 187.174C427.947 187.262 427.571 187.272 427.205 187.203L420.726 185.971L393.328 180.757L390.862 181.354Z" fill="white"/>
<path d="M390.862 181.354L418.26 186.568L427.01 188.234C427.522 188.33 428.049 188.316 428.555 188.193C429.062 188.071 429.537 187.842 429.948 187.523L436.975 182.037L434.509 182.634L429.304 186.695C429.01 186.923 428.671 187.087 428.309 187.174C427.947 187.262 427.571 187.272 427.205 187.203L420.726 185.971L393.328 180.757L390.862 181.354ZM472.7 152.815L472.966 153.917L474.181 152.972L472.7 152.815ZM390.862 181.354L418.26 186.568L427.01 188.234C427.522 188.33 428.049 188.316 428.555 188.193C429.062 188.071 429.537 187.842 429.948 187.523L436.975 182.037L434.509 182.634L429.304 186.695C429.01 186.923 428.671 187.087 428.309 187.174C427.947 187.262 427.571 187.272 427.205 187.203L420.726 185.971L393.328 180.757L390.862 181.354ZM390.862 181.354L418.26 186.568L427.01 188.234C427.522 188.33 428.049 188.316 428.555 188.193C429.062 188.071 429.537 187.842 429.948 187.523L436.975 182.037L434.509 182.634L429.304 186.695C429.01 186.923 428.671 187.087 428.309 187.174C427.947 187.262 427.571 187.272 427.205 187.203L420.726 185.971L393.328 180.757L390.862 181.354ZM303.035 165.911L303.17 166.013C303.193 165.976 303.233 165.942 303.263 165.903C303.566 165.588 303.942 165.353 304.359 165.219C304.775 165.085 305.218 165.056 305.648 165.136L365.334 176.49L390.862 181.354L418.26 186.568L427.01 188.234C427.522 188.33 428.049 188.316 428.555 188.193C429.062 188.071 429.537 187.842 429.948 187.523L436.975 182.037L434.509 182.634L429.304 186.695C429.01 186.923 428.671 187.086 428.309 187.174C427.947 187.262 427.571 187.272 427.205 187.203L420.726 185.971L393.328 180.757L365.906 175.542L305.844 164.112C305.332 164.01 304.804 164.022 304.297 164.145L303.035 165.911ZM301.599 168.567L332.515 296.278C332.744 297.221 333.339 298.036 334.168 298.541C334.997 299.047 335.993 299.204 336.937 298.976L560.698 244.808C561.641 244.579 562.456 243.984 562.961 243.155C563.467 242.326 563.624 241.33 563.396 240.386L532.48 112.676C532.337 112.08 532.046 111.529 531.634 111.076C531.222 110.622 530.702 110.28 530.122 110.081C529.694 109.93 529.242 109.862 528.788 109.88C528.26 109.895 527.742 110.032 527.274 110.278C527.058 110.381 526.854 110.507 526.667 110.655L508.303 124.995L481.633 145.829L472.698 152.808L472.7 152.815L472.692 152.817L439.926 178.395L434.51 182.634L429.304 186.695C429.01 186.923 428.671 187.087 428.309 187.174C427.947 187.262 427.571 187.272 427.205 187.203L420.726 185.971L393.328 180.757L365.906 175.542L305.844 164.112C305.332 164.01 304.804 164.022 304.297 164.145C303.614 164.312 302.993 164.672 302.509 165.181C302.323 165.381 302.158 165.599 302.016 165.832C301.522 166.654 301.373 167.636 301.599 168.567V168.567ZM302.618 168.321C302.527 167.944 302.521 167.552 302.601 167.173C302.681 166.794 302.844 166.438 303.08 166.13C303.101 166.085 303.132 166.045 303.17 166.013C303.193 165.976 303.233 165.942 303.263 165.903C303.566 165.588 303.942 165.353 304.359 165.219C304.775 165.085 305.218 165.056 305.648 165.136L365.334 176.49L390.862 181.354L418.26 186.568L427.01 188.234C427.522 188.33 428.049 188.316 428.555 188.193C429.062 188.071 429.537 187.842 429.948 187.523L436.975 182.037L441.419 178.565L472.966 153.917L474.181 152.972L481.628 147.155L508.146 126.445L527.317 111.474C527.609 111.247 527.945 111.084 528.305 110.997C528.405 110.972 528.507 110.956 528.61 110.947C528.699 110.93 528.79 110.922 528.881 110.921C529.188 110.918 529.492 110.968 529.782 111.068C530.195 111.212 530.566 111.457 530.86 111.78C531.155 112.104 531.364 112.496 531.468 112.921L562.384 240.631C562.465 240.966 562.48 241.313 562.427 241.653C562.374 241.994 562.254 242.32 562.075 242.614C561.895 242.908 561.66 243.164 561.381 243.367C561.103 243.57 560.787 243.716 560.453 243.796L336.692 297.964C336.017 298.126 335.305 298.014 334.713 297.651C334.121 297.289 333.697 296.706 333.534 296.031L302.618 168.321ZM390.862 181.354L418.26 186.568L427.01 188.234C427.522 188.33 428.049 188.316 428.555 188.194C429.062 188.071 429.537 187.842 429.948 187.523L436.975 182.037L434.509 182.634L429.304 186.695C429.01 186.923 428.671 187.087 428.309 187.174C427.947 187.262 427.571 187.272 427.205 187.203L420.726 185.971L393.328 180.757L390.862 181.354ZM390.862 181.354L418.26 186.568L427.01 188.234C427.522 188.33 428.049 188.316 428.555 188.194C429.062 188.071 429.537 187.842 429.948 187.523L436.975 182.037L434.509 182.634L429.304 186.695C429.01 186.923 428.671 187.087 428.309 187.174C427.947 187.262 427.571 187.272 427.205 187.203L420.726 185.971L393.328 180.757L390.862 181.354ZM390.862 181.354L418.26 186.568L427.01 188.234C427.522 188.33 428.049 188.316 428.555 188.194C429.062 188.071 429.537 187.842 429.948 187.523L436.975 182.037L434.509 182.634L429.304 186.695C429.01 186.923 428.671 187.087 428.309 187.174C427.947 187.262 427.571 187.272 427.205 187.203L420.726 185.971L393.328 180.757L390.862 181.354Z" fill="#3F3D56"/>
<path d="M502.379 219.717C501.875 217.625 502.221 215.418 503.342 213.58C504.464 211.743 506.268 210.425 508.36 209.916L536.601 203.079C538.691 202.581 540.893 202.932 542.725 204.054C544.557 205.176 545.869 206.979 546.375 209.067C546.88 211.155 546.537 213.358 545.422 215.194C544.306 217.03 542.508 218.349 540.422 218.861L512.18 225.698C510.087 226.202 507.88 225.856 506.043 224.734C504.205 223.613 502.888 221.809 502.379 219.717Z" fill="#00F3FF"/>
<path d="M190.277 196C194.143 196 197.277 192.866 197.277 189C197.277 185.134 194.143 182 190.277 182C186.411 182 183.277 185.134 183.277 189C183.277 192.866 186.411 196 190.277 196Z" fill="white"/>
</svg>
